<mxfile host="app.diagrams.net" modified="2024-03-07T01:24:02.828Z" agent="Mozilla/5.0 (Windows NT 10.0; Win64; x64) AppleWebKit/537.36 (KHTML, like Gecko) Chrome/122.0.0.0 Safari/537.36 Edg/122.0.0.0" version="24.0.2" etag="m4mqjXhMdf5I3V2VrNq0" type="github">
  <diagram name="第 1 页" id="5e7Bmm7NJK50NpsO_3Wj">
    <mxGraphModel>
      <root>
        <mxCell id="0" />
        <mxCell id="1" parent="0" />
      </root>
    </mxGraphModel>
  </diagram>
</mxfile>
